<svg xmlns="http://www.w3.org/2000/svg" width="24" height="24" viewBox="0 0 24 24">
  <g id="vuesax_linear_home-trend-up" data-name="vuesax/linear/home-trend-up" transform="translate(-428 -188)">
    <g id="home-trend-up">
      <path id="Vector" d="M7.02.823l-5.39,4.2A4.759,4.759,0,0,0,0,8.343v7.41a4.225,4.225,0,0,0,4.21,4.22H15.79A4.223,4.223,0,0,0,20,15.763V8.483a4.723,4.723,0,0,0-1.8-3.45L12.02.7A4.487,4.487,0,0,0,7.02.823Z" transform="translate(430 190.017)" fill="none" stroke="#828c8d" stroke-linecap="round" stroke-linejoin="round" stroke-width="1.5"/>
      <path id="Vector-2" data-name="Vector" d="M0,0H24V24H0Z" transform="translate(428 188)" fill="none" opacity="0"/>
      <path id="Vector-3" data-name="Vector" d="M0,2.114l6-.02a2.178,2.178,0,0,1,1.87,1.27l1.14,2.88c.26.65.67.65.93,0L12.23.434c.22-.56.63-.58.91-.05l1.04,1.97a2.207,2.207,0,0,0,1.77,1.07h4.06" transform="translate(430 200.004)" fill="none" stroke="#828c8d" stroke-linecap="round" stroke-linejoin="round" stroke-width="1.5"/>
    </g>
  </g>
</svg>
